#!OML:ASF H:\Terrain\Patient Classification 1\PLAYGROUND\JustinFriday\JustinFriday.ASF
:FULLY-SPECIFIED
:DEGREES
950
root 13.7395 16.8305 23.3521 181.46 -40.265 -184.626
lowerback 19.711 -2.36013 -7.44907
upperback 3.48805 -4.88608 2.43053
thorax -6.36868 -2.40073 8.10334
lowerneck 2.50459 -1.25803 -4.60996
upperneck -20.6249 -1.84006 8.12943
head -6.5194 -1.67517 3.57081
rclavicle -9.52179e-014 1.15295e-014
rhumerus -51.6788 -41.86 -49.5164
rradius 22.8162
rwrist -22.222
rhand -12.1068 -36.9123
rfingers 7.12502
rthumb 13.954 -426.424
lclavicle -9.52179e-014 1.15295e-014
lhumerus -23.435 13.5861 74.9238
lradius 58.2797
lwrist -11.4857
lhand -26.2277 -5.96354
lfingers 7.12502
lthumb 0.325798 24.016
rfemur -37.6788 13.3902 1.40607
rtibia 36.4215
rfoot -5.8579 -19.9508
rtoes 20.7182
lfemur 13.1444 1.15917 -15.9443
ltibia 19.1951
lfoot -34.2636 -20.4195
ltoes -13.3087
951
root 13.7331 16.873 23.4325 182.715 -40.0438 -185.995
lowerback 19.5853 -2.04041 -8.41395
upperback 3.4012 -4.65838 2.21793
thorax -6.37806 -2.26177 8.36624
lowerneck 1.66949 -1.51753 -4.7376
upperneck -20.4269 -2.20512 8.23931
head -6.28089 -1.84833 3.62661
rclavicle -8.7664e-014 1.59028e-014
rhumerus -53.1718 -42.9876 -48.4605
rradius 19.8298
rwrist -15.1737
rhand -10.2603 -34.2591
rfingers 7.12502
rthumb 15.7329 -423.64
lclavicle -8.7664e-014 1.59028e-014
lhumerus -25.5239 14.2436 75.4793
lradius 54.8543
lwrist -12.2151
lhand -25.7567 -6.40607
lfingers 7.12502
lthumb 0.780723 23.5722
rfemur -38.2336 13.6139 0.161326
rtibia 36.4028
rfoot -6.52339 -19.2423
rtoes 21.8493
lfemur 12.4197 2.18244 -16.9473
ltibia 19.1917
lfoot -33.1392 -22.681
ltoes -10.4283
952
root 13.7223 16.8953 23.5036 183.679 -39.7571 -187.058
lowerback 19.4389 -1.7309 -8.93793
upperback 3.32349 -4.3601 1.87939
thorax -6.43175 -2.09535 8.21892
lowerneck 1.13948 -1.78488 -4.81918
upperneck -20.3717 -2.5433 8.54355
head -6.13933 -2.0317 3.7435
rclavicle -8.22969e-014 7.95139e-015
rhumerus -55.7009 -44.5923 -46.5139
rradius 17.3702
rwrist -7.13324
rhand -9.60819 -31.625
rfingers 7.12502
rthumb 16.3609 -420.955
lclavicle -8.22969e-014 7.95139e-015
lhumerus -27.6476 14.7806 75.6886
lradius 51.1831
lwrist -12.7337
lhand -25.7914 -7.13412
lfingers 7.12502
lthumb 0.747253 22.8443
rfemur -38.7018 13.7436 -0.690376
rtibia 36.4429
rfoot -6.96437 -18.0413
rtoes 22.1445
lfemur 11.9563 3.09286 -17.7935
ltibia 19.0699
lfoot -32.6408 -23.6941
ltoes -9.62473
953
root 13.6933 16.9113 23.5683 184.057 -39.3838 -187.188
lowerback 19.1082 -1.59959 -8.47876
upperback 3.21718 -4.06875 1.60338
thorax -6.4835 -1.94933 7.56575
lowerneck 0.659601 -2.01732 -4.94155
upperneck -20.2041 -2.8371 8.78376
head -5.97404 -2.17833 3.83903
rclavicle 1.04958e-013 -4.09496e-014
rhumerus -58.4226 -45.7344 -44.7242
rradius 15.83
rwrist 0.836473
rhand -9.24269 -29.7562
rfingers 7.12502
rthumb 16.7128 -419.057
lclavicle 1.04958e-013 -4.09496e-014
lhumerus -29.8154 15.6946 75.609
lradius 47.5298
lwrist -13.1978
lhand -26.3644 -6.94331
lfingers 7.12502
lthumb 0.193787 23.0363
rfemur -39.1961 13.4823 -0.577105
rtibia 36.5584
rfoot -7.02509 -16.6537
rtoes 21.4805
lfemur 11.6053 3.1775 -18.2796
ltibia 18.9895
lfoot -32.448 -23.3258
ltoes -10.2018
954
root 13.6526 16.9429 23.6332 184.354 -38.8654 -186.872
lowerback 18.4895 -1.51973 -7.77771
upperback 3.08186 -3.75219 1.574
thorax -6.40438 -1.79938 7.02359
lowerneck 0.0885863 -2.21567 -5.39763
upperneck -20.0368 -3.10863 8.9971
head -5.78932 -2.28809 3.97782
rclavicle -5.42682e-014 1.98785e-014
rhumerus -60.3567 -46.1083 -43.6441
rradius 14.84
rwrist 8.0534
rhand -8.87081 -27.3937
rfingers 7.12502
rthumb 17.0708 -416.664
lclavicle -5.42682e-014 1.98785e-014
lhumerus -32.0502 17.437 75.3811
lradius 43.9276
lwrist -13.4995
lhand -25.8852 -6.61459
lfingers 7.12502
lthumb 0.656625 23.3641
rfemur -39.9884 13.371 -0.243559
rtibia 36.625
rfoot -7.38286 -15.6374
rtoes 21.3358
lfemur 11.0683 2.90712 -18.6586
ltibia 18.9083
lfoot -32.1449 -22.381
ltoes -10.3504
955
root 13.6128 16.9676 23.7034 184.945 -38.4025 -186.848
lowerback 17.7186 -1.43862 -7.36584
upperback 2.99728 -3.48877 1.53061
thorax -6.1523 -1.68139 6.63498
lowerneck 0.0208408 -2.3001 -5.33465
upperneck -20.7071 -3.31977 8.68686
head -5.9843 -2.40757 3.9005
rclavicle -3.97569e-016 1.35174e-014
rhumerus -61.5064 -46.177 -43.4216
rradius 14.2122
rwrist 13.8125
rhand -9.10543 -25.4064
rfingers 7.12502
rthumb 16.845 -414.696
lclavicle -3.97569e-016 1.35174e-014
lhumerus -34.2344 19.2987 74.8969
lradius 40.3994
lwrist -13.3409
lhand -25.842 -6.4503
lfingers 7.12502
lthumb 0.698387 23.5283
rfemur -40.3642 11.9034 0.627637
rtibia 36.6738
rfoot -6.92942 -14.1498
rtoes 15.3434
lfemur 10.3053 2.56842 -19.324
ltibia 18.9643
lfoot -31.9252 -21.0967
ltoes -10.5086
956
root 13.5688 16.9927 23.7699 185.227 -37.9842 -186.673
lowerback 17.0756 -1.35076 -6.69601
upperback 3.01332 -3.20173 1.36976
thorax -5.88075 -1.56432 5.97699
lowerneck 0.353634 -2.32829 -4.62519
upperneck -21.8221 -3.5094 7.9996
head -6.41865 -2.5555 3.61886
rclavicle 4.03533e-014 1.27222e-014
rhumerus -61.6471 -45.6746 -44.819
rradius 14.0656
rwrist 17.0723
rhand -9.32709 -24.4422
rfingers 7.12502
rthumb 16.6316 -413.75
lclavicle 4.03533e-014 1.27222e-014
lhumerus -36.4473 21.1254 73.9122
lradius 37.1508
lwrist -12.9137
lhand -25.8217 -6.03969
lfingers 7.12502
lthumb 0.717975 23.9388
rfemur -40.4919 10.5776 1.57912
rtibia 36.5319
rfoot -6.81043 -12.6826
rtoes 11.2225
lfemur 9.66257 1.91872 -19.9645
ltibia 19.3665
lfoot -31.9517 -19.2136
ltoes -11.4855
957
root 13.5184 17.0292 23.8342 184.824 -37.4603 -185.853
lowerback 16.6686 -1.18148 -5.61502
upperback 3.13204 -2.75941 1.37666
thorax -5.64983 -1.38107 5.25152
lowerneck 0.343022 -2.45042 -4.24349
upperneck -22.4969 -3.77887 7.63391
head -6.63631 -2.72288 3.47566
rclavicle -6.02318e-014 1.19271e-014
rhumerus -61.0704 -44.6999 -46.9924
rradius 14.0973
rwrist 18.6316
rhand -9.74813 -22.7189
rfingers 7.12502
rthumb 16.2262 -412.06
lclavicle -6.02318e-014 1.19271e-014
lhumerus -38.789 23.1478 72.5869
lradius 34.237
lwrist -12.6213
lhand -25.1211 -5.46339
lfingers 7.12502
lthumb 1.39462 24.5118
rfemur -40.3254 9.56975 3.11579
rtibia 36.3913
rfoot -6.88016 -11.2137
rtoes 8.39448
lfemur 9.20836 1.4321 -20.0428
ltibia 20.1395
lfoot -32.2087 -17.2726
ltoes -12.4817
958
root 13.4676 17.0598 23.8987 184.219 -36.9972 -184.732
lowerback 16.3462 -1.02171 -4.53173
upperback 3.28356 -2.33581 1.6475
thorax -5.39963 -1.20631 4.81944
lowerneck 0.280587 -2.51378 -4.17878
upperneck -23.3078 -4.01594 7.25426
head -6.88887 -2.85655 3.3858
rclavicle 4.77083e-015 -9.54166e-015
rhumerus -59.5082 -43.0055 -50.179
rradius 14.3258
rwrist 18.974
rhand -10.3526 -21.1788
rfingers 7.12502
rthumb 15.6441 -410.566
lclavicle 4.77083e-015 -9.54166e-015
lhumerus -41.3226 25.1574 71.2968
lradius 31.7455
lwrist -11.7894
lhand -24.1723 -4.58285
lfingers 7.12502
lthumb 2.31092 25.3844
rfemur -40.175 8.47612 4.97086
rtibia 36.0957
rfoot -6.61563 -9.87989
rtoes 6.20635
lfemur 8.66557 1.35384 -19.6662
ltibia 21.1169
lfoot -32.4812 -16.1191
ltoes -12.7343
959
root 13.4325 17.071 23.9574 184.077 -36.709 -184.046
lowerback 15.9031 -0.936859 -3.84597
upperback 3.32166 -2.08177 1.75884
thorax -5.16823 -1.09788 4.47654
lowerneck 0.240864 -2.49381 -3.81383
upperneck -23.9985 -4.13289 6.78008
head -7.12605 -2.94317 3.20442
rclavicle -3.08116e-014 -1.27222e-014
rhumerus -57.7402 -40.7933 -54.0957
rradius 15.0946
rwrist 17.5338
rhand -9.1532 -21.5188
rfingers 7.12502
rthumb 16.799 -410.812
lclavicle -3.08116e-014 -1.27222e-014
lhumerus -44.0801 26.9008 69.5354
lradius 29.5181
lwrist -10.5218
lhand -23.2734 -3.08549
lfingers 7.12502
lthumb 3.17907 26.8706
rfemur -39.7848 6.37958 6.93973
rtibia 35.9209
rfoot -6.34933 -8.13004
rtoes 2.82758
lfemur 7.85929 1.06709 -19.6079
ltibia 22.0962
lfoot -32.6424 -15.0443
ltoes -12.9335
